<?xml version="1.0" standalone="no"?>
<!DOCTYPE svg PUBLIC "-//W3C//DTD SVG 20010904//EN"
 "http://www.w3.org/TR/2001/REC-SVG-20010904/DTD/svg10.dtd">
<svg version="1.0" xmlns="http://www.w3.org/2000/svg"
 width="170.000000pt" height="60.000000pt" viewBox="0 0 170.000000 60.000000"
 preserveAspectRatio="xMidYMid meet">

<g transform="translate(0.000000,60.000000) scale(0.100000,-0.100000)"
fill="#000000" stroke="none">
<path d="M626 545 c-8 -8 -23 -15 -34 -15 -11 0 -22 -6 -25 -14 -3 -8 -16 -16
-29 -18 -23 -3 -23 -5 -23 -118 0 -111 1 -115 22 -118 12 -2 27 -10 33 -18 7
-8 19 -14 27 -14 8 0 21 -7 29 -15 22 -22 32 -20 119 32 96 56 79 73 -18 19
-35 -20 -69 -36 -75 -36 -26 0 -9 18 48 50 57 32 74 50 48 50 -7 0 -33 -11
-57 -25 -50 -29 -51 -29 -51 -12 0 7 16 21 35 31 56 31 43 46 -17 21 -15 -6
-18 -1 -18 34 0 23 2 41 5 41 3 0 91 -49 196 -110 105 -60 196 -110 203 -110
8 0 19 7 26 15 7 8 20 15 29 15 9 0 22 5 28 11 6 6 22 17 35 23 22 11 23 17
23 116 0 99 -1 105 -23 116 -13 6 -29 17 -35 23 -6 6 -19 11 -28 11 -9 0 -22
7 -29 15 -7 8 -18 15 -25 15 -16 0 -165 -83 -165 -92 0 -17 35 -6 90 27 55 33
90 44 90 28 0 -5 -25 -21 -56 -38 -30 -16 -60 -36 -66 -42 -19 -23 20 -15 68
13 47 28 75 24 37 -4 -12 -10 -33 -25 -45 -35 l-23 -18 25 4 c14 3 33 8 43 12
15 6 17 1 17 -34 0 -23 -3 -41 -7 -41 -5 0 -93 50 -198 110 -104 61 -195 110
-201 110 -7 0 -19 -7 -28 -15z m239 -130 c179 -103 203 -120 192 -132 -8 -7
-417 229 -417 240 0 18 42 -2 225 -108z m-255 80 c0 -8 -4 -15 -10 -15 -5 0
-10 7 -10 15 0 8 5 15 10 15 6 0 10 -7 10 -15z m500 -6 c0 -5 -7 -9 -15 -9
-15 0 -20 12 -9 23 8 8 24 -1 24 -14z m-552 -112 c-4 -111 -22 -115 -26 -5 -3
88 2 118 19 101 5 -5 9 -47 7 -96z m300 -17 c111 -63 202 -118 202 -122 0 -5
-7 -8 -15 -8 -24 0 -405 224 -405 238 0 18 -13 24 218 -108z m302 20 c0 -60
-4 -100 -10 -100 -6 0 -10 40 -10 100 0 60 4 100 10 100 6 0 10 -40 10 -100z
m-550 0 c0 -40 -4 -70 -10 -70 -6 0 -10 30 -10 70 0 40 4 70 10 70 6 0 10 -30
10 -70z m500 -1 c0 -52 -3 -70 -12 -67 -13 5 -24 99 -14 124 14 36 26 9 26
-57z m-500 -114 c0 -8 -4 -15 -10 -15 -5 0 -10 7 -10 15 0 8 5 15 10 15 6 0
10 -7 10 -15z m498 4 c-2 -6 -8 -10 -13 -10 -5 0 -11 4 -13 10 -2 6 4 11 13
11 9 0 15 -5 13 -11z"/>
<path d="M741 104 c0 -11 3 -14 6 -6 3 7 2 16 -1 19 -3 4 -6 -2 -5 -13z"/>
</g>
</svg>
